<svg xmlns="http://www.w3.org/2000/svg" viewBox="0 0 400 400">
  <style>
    path { fill: #0a0a0a; }
    @media (prefers-color-scheme: dark) { path { fill: #ffffff; } }
  </style>
  <path d="M300,0H100c-27.62,0-52.62,11.19-70.71,29.29C11.19,47.38,0,72.38,0,100h158.58L29.29,229.29C11.19,247.38,0,272.38,0,300s11.19,52.62,29.29,70.71c18.15,18.16,43.25,29.36,70.98,29.29h49.73c55.23,0,100-44.77,100-100,0-27.75,0-69.42,0-100l-50.54,50h.54c0,27.61-22.39,50-50,50h0v-.54l-.54.54h-49.46l37.09-37.09,7.88-7.88,15.61-15.61,139.42-139.42v300c55.23,0,100-44.77,100-100V100c0-55.23-44.77-100-100-100Z"/>
</svg>
